# Blender v2.79 (sub 0) OBJ File: ''
# www.blender.org
mtllib modell_chessBoard.mtl
o Cube
v 4.941466 -0.167669 -4.941466
v 4.941466 -0.167669 4.941466
v -4.941467 -0.167669 4.941465
v -4.941464 -0.167669 -4.941468
v 5.024544 -0.223673 -5.024539
v 5.024539 -0.223673 5.024544
v -5.024543 -0.223673 5.024539
v -5.024541 -0.223673 -5.024541
v 4.941466 -0.108719 -4.941466
v 4.941466 -0.108719 4.941466
v -4.941467 -0.108719 4.941465
v -4.941464 -0.108719 -4.941468
v 4.900784 -0.108719 -4.900784
v 4.900784 -0.108719 4.900784
v -4.900785 -0.108719 4.900784
v -4.900783 -0.108719 -4.900786
v 4.842065 -0.076083 -4.842065
v 4.842065 -0.076083 4.842065
v -4.842065 -0.076083 4.842064
v -4.842063 -0.076083 -4.842067
v 4.842065 -0.035367 -4.842065
v 4.842065 -0.035367 4.842065
v -4.842065 -0.035367 4.842064
v -4.842063 -0.035367 -4.842067
vt 0.499464 0.516611
vt 0.499514 0.965768
vt 0.491675 0.965829
vt 0.491625 0.516672
vt 0.999545 0.508492
vt 0.999545 1.000370
vt 0.507668 1.000370
vt 0.507668 0.508492
vt 0.507467 0.510075
vt 0.507468 0.969614
vt 0.483504 0.992366
vt 0.490040 1.000369
vt 0.030501 1.000370
vt 0.034347 0.992416
vt 0.007749 0.976406
vt -0.000254 0.982942
vt -0.000255 0.523403
vt 0.007699 0.527249
vt 0.476711 0.492647
vt 0.472866 0.500601
vt 0.023709 0.500651
vt 0.017172 0.492648
vt 0.483442 0.984527
vt 0.034285 0.984577
vt 0.036044 0.976872
vt 0.475635 0.976721
vt 0.015538 0.527187
vt 0.015588 0.976345
vt 0.472927 0.508440
vt 0.023770 0.508490
vt 0.023394 0.968537
vt 0.023243 0.528946
vt 0.030801 0.531496
vt 0.031017 0.961869
vt 0.483970 0.964071
vt 0.483819 0.524480
vt 0.471169 0.516145
vt 0.031578 0.516295
vt 0.038246 0.523919
vt 0.468619 0.523703
vt 0.468684 0.531214
vt 0.038312 0.531430
vt 0.038594 0.969314
vt 0.468967 0.969097
vt 0.476412 0.961521
vt 0.476195 0.531148
vt 0.468901 0.961586
vt 0.038528 0.961803
vn -1.0000 0.0000 0.0000
vn 0.0000 1.0000 0.0000
vn -0.5590 -0.8292 -0.0000
vn 0.0000 -0.8292 -0.5590
vn 0.5590 -0.8292 0.0000
vn -0.0000 -0.8292 0.5590
vn 0.0000 -1.0000 0.0000
vn 1.0000 0.0000 0.0000
vn 0.0000 0.0000 -1.0000
vn -0.0000 0.0000 1.0000
vn 0.4858 -0.8741 0.0000
vn -0.0000 -0.8741 0.4858
vn 0.0000 -0.8741 -0.4858
vn -0.4858 -0.8741 0.0000
usemtl Material.001
s off
f 1/1/1 2/2/1 10/3/1 9/4/1
f 5/5/2 8/6/2 7/7/2 6/8/2
f 1/1/3 5/9/3 6/10/3 2/2/3
f 2/11/4 6/12/4 7/13/4 3/14/4
f 3/15/5 7/16/5 8/17/5 4/18/5
f 5/19/6 1/20/6 4/21/6 8/22/6
f 10/23/7 11/24/7 15/25/7 14/26/7
f 3/15/8 4/18/8 12/27/8 11/28/8
f 2/11/9 3/14/9 11/24/9 10/23/9
f 4/21/10 1/20/10 9/29/10 12/30/10
f 15/31/11 16/32/11 20/33/11 19/34/11
f 9/4/7 10/3/7 14/35/7 13/36/7
f 11/28/7 12/27/7 16/32/7 15/31/7
f 12/30/7 9/29/7 13/37/7 16/38/7
f 20/39/10 17/40/10 21/41/10 24/42/10
f 16/38/12 13/37/12 17/40/12 20/39/12
f 14/26/13 15/25/13 19/43/13 18/44/13
f 13/36/14 14/35/14 18/45/14 17/46/14
f 21/41/7 22/47/7 23/48/7 24/42/7
f 18/44/9 19/43/9 23/48/9 22/47/9
f 17/46/1 18/45/1 22/47/1 21/41/1
f 19/34/8 20/33/8 24/42/8 23/48/8
